<?xml version="1.0" encoding="utf-8"?>
<svg xmlns="http://www.w3.org/2000/svg" version="1.1" width="1080" height="1080" viewBox="0 0 1080 1080">
  <desc>Created with Fabric.js 5.2.4</desc>
  <g transform="matrix(1.808129, 0, 0, 1.82718, 557.28717, 555.260925)" style="">
    <g style="" vector-effect="non-scaling-stroke">
      <g transform="matrix(1 0 0 1 65.21 -145.9)" style="">
        <path style="stroke: rgb(57,166,165); stroke-width: 1; stroke-dasharray: none; stroke-linecap: butt; stroke-dashoffset: 0; stroke-linejoin: miter; stroke-miterlimit: 4; fill: rgb(57,166,165); fill-rule: nonzero; opacity: 1;" vector-effect="non-scaling-stroke" transform=" translate(-578.17, -367.01)" d="M 646.130005 486.904938 C 625.026855 486.904938 603.923706 486.904938 582.416992 486.904938 C 582.309204 484.712616 582.146484 482.928619 582.145386 481.144501 C 582.135193 464.485168 582.150879 447.825836 582.163086 431.166504 C 582.169128 423.00293 588.537476 417.202576 596.839905 417.280884 C 609.148743 417.397034 621.543762 418.080292 633.753357 416.935577 C 657.246704 414.732941 675.15448 394.98941 676.747925 370.960876 C 678.363708 346.595306 662.663391 324.340057 639.751587 318.817413 C 635.583801 317.812805 631.224976 317.175507 626.946228 317.129578 C 606.957031 316.915009 586.965027 316.962769 566.973999 316.935028 C 565.837219 316.933441 564.700134 317.094086 562.902954 317.228638 C 562.902954 338.308167 562.902954 359.222656 562.966553 380.821289 C 563.030212 381.505463 562.946228 381.923492 562.571289 381.93689 C 551.781311 386.611389 541.366333 391.272461 530.579834 395.981262 C 520.141174 400.029785 510.074005 404.030609 499.642029 408.060608 C 497.612976 408.42215 495.948761 408.754517 494.134827 408.631348 C 493.985107 377.947754 493.985107 347.719696 493.985107 317.379852 C 487.143402 317.379852 481.199249 317.379852 475.092102 317.056183 C 456.323395 298.019409 437.693787 279.329926 419.132568 260.572815 C 415.538452 256.940765 412.211212 253.044632 409.061371 248.933868 C 411.487915 248.398087 413.613892 248.02536 415.73999 248.024506 C 489.397949 247.994598 563.055908 248.00705 636.713867 247.962906 C 638.794983 247.961655 640.875793 247.410339 642.956726 247.115509 C 660.155151 248.925873 676.100769 254.651688 690.565857 263.872681 C 734.259827 291.725983 754.871094 340.275238 744.755981 391.135315 C 741.162231 409.205292 733.202026 425.451324 722.042725 440.827148 C 714.719238 448.392639 708.304871 456.100922 700.723694 462.406433 C 690.638733 470.794464 679.23999 477.353333 666.48291 481.112488 C 659.717163 483.106201 652.915466 484.978058 646.130005 486.904938 z" stroke-linecap="round"/>
      </g>
      <g transform="matrix(1 0 0 1 -150.36 66.96)" style="">
        <path style="stroke: rgb(59,80,92); stroke-width: 1; stroke-dasharray: none; stroke-linecap: butt; stroke-dashoffset: 0; stroke-linejoin: miter; stroke-miterlimit: 4; fill: rgb(59,80,92); fill-rule: nonzero; opacity: 1;" vector-effect="non-scaling-stroke" transform=" translate(-362.6, -579.87)" d="M 474.99527 491.999268 C 475.052582 496.361115 475.109863 500.722931 474.786194 505.837921 C 474.272583 507.233093 474.02478 507.874969 474.023895 508.517181 C 474.000549 525.784973 473.982422 543.052856 474.042816 560.320496 C 474.047119 561.547302 474.659729 562.772034 474.989502 563.997742 C 475.39328 598.485901 462.278687 627.213867 436.175751 649.235107 C 402.124146 677.962219 362.98349 684.070435 321.969025 667.889954 C 280.86853 651.675598 258.010834 619.724182 250.659332 576.166565 C 249.002625 566.350708 251.286469 560.098755 259.302429 554.323303 C 268.187286 547.921875 276.013947 540.062195 284.439606 533.00238 C 285.809967 531.854126 287.93222 530.88446 289.645081 530.97699 C 303.583405 531.729858 317.506989 532.755188 331.714722 533.716492 C 331.045929 534.727234 330.178802 536.04657 329.302948 537.360107 C 313.600494 560.910278 321.338257 591.256409 345.859283 602.287903 C 374.814484 615.314209 405.113831 594.905273 405.291199 562.193298 C 405.373413 547.031006 405.491486 531.862549 405.129608 516.707886 C 405.012756 511.81311 406.389648 509.551361 411.101501 507.706299 C 431.559753 499.695251 451.811035 491.155609 472.669495 483.047882 C 473.80014 483.524689 474.398834 483.761719 474.997559 483.998779 C 475.055267 486.045227 475.112976 488.091644 474.917542 490.658112 C 474.774658 491.451843 474.884979 491.725555 474.99527 491.999268 z" stroke-linecap="round"/>
      </g>
      <g transform="matrix(1 0 0 1 166.19 44.25)" style="">
        <path style="stroke: rgb(59,81,92); stroke-width: 1; stroke-dasharray: none; stroke-linecap: butt; stroke-dashoffset: 0; stroke-linejoin: miter; stroke-miterlimit: 4; fill: rgb(59,81,92); fill-rule: nonzero; opacity: 1;" vector-effect="non-scaling-stroke" transform=" translate(-679.16, -557.16)" d="M 646.538818 486.979736 C 652.915466 484.978058 659.717163 483.106201 666.48291 481.112488 C 679.23999 477.353333 690.638733 470.794464 700.723694 462.406433 C 708.304871 456.100922 714.719238 448.392639 721.959839 441.144043 C 789.900818 487.502167 794.500366 588.073608 731.506287 641.192566 C 706.162109 662.563721 677.136902 673.4646 643.90271 673.166321 C 625.250305 672.998901 606.594971 673.150269 587.940979 673.157837 C 586.164124 673.158569 584.387207 673.157959 582.336304 673.157959 C 582.336304 649.32428 582.336304 626.083862 582.336304 602.139832 C 584.233643 602.139832 585.999756 602.143677 587.765869 602.139221 C 607.585571 602.0896 627.407776 602.218201 647.224365 601.944641 C 674.870422 601.563171 697.244873 584.67804 703.693054 559.702148 C 712.197083 526.763855 689.954041 493.421753 655.877686 488.074249 C 652.920532 487.610168 649.925232 487.388733 646.538818 486.979736 z" stroke-linecap="round"/>
      </g>
      <g transform="matrix(1 0 0 1 15.37 66.87)">
        <path style="stroke: rgb(57,166,165); stroke-width: 1; stroke-dasharray: none; stroke-linecap: butt; stroke-dashoffset: 0; stroke-linejoin: miter; stroke-miterlimit: 4; fill: rgb(57,166,165); fill-rule: nonzero; opacity: 1;" vector-effect="non-scaling-stroke" transform=" translate(-528.33, -579.77)" d="M 562.37738 486.714417 C 562.547607 488.35498 562.866089 489.995514 562.866577 491.636108 C 562.884521 550.625549 562.874084 609.614929 562.857117 668.60437 C 562.85675 669.905212 562.736145 671.206055 562.655457 672.832581 C 539.798096 672.832581 517.22876 672.832581 493.782898 672.832581 C 493.782898 621.819031 493.782898 570.906921 494.261139 519.494507 C 496.270233 518.383789 497.848694 517.870605 499.324738 517.148132 C 518.22998 507.894745 537.114502 498.59906 556.023621 489.353546 C 558.080078 488.348053 560.256531 487.588165 562.37738 486.714417 z" stroke-linecap="round"/>
      </g>
      <g transform="matrix(1 0 0 1 -72.72 -167.84)">
        <path style="stroke: rgb(57,80,92); stroke-width: 1; stroke-dasharray: none; stroke-linecap: butt; stroke-dashoffset: 0; stroke-linejoin: miter; stroke-miterlimit: 4; fill: rgb(57,80,92); fill-rule: nonzero; opacity: 1;" vector-effect="non-scaling-stroke" transform=" translate(-440.24, -345.06)" d="M 408.760864 249.270309 C 412.211212 253.044632 415.538452 256.940765 419.132568 260.572815 C 437.693787 279.329926 456.323395 298.019409 475.094177 317.495728 C 475.269531 351.111877 475.279846 383.964783 474.911377 416.89856 C 471.023438 418.648041 467.514343 420.316681 463.620911 421.9953 C 459.007629 423.434052 454.75824 424.805389 450.553741 426.302704 C 439.691132 430.171112 428.848328 434.095093 417.611603 438.00531 C 413.24234 439.332947 409.259094 440.65213 405.275879 441.971313 C 405.285645 377.685303 405.29541 313.399261 405.602325 248.6362 C 406.262665 248.111084 406.625885 248.063004 407.135773 248.257446 C 407.775269 248.756744 408.268066 249.013535 408.760864 249.270309 z" stroke-linecap="round"/>
      </g>
      <g transform="matrix(1 0 0 1 15.29 -35.1)">
        <path style="stroke: rgb(10,53,58); stroke-width: 1; stroke-dasharray: none; stroke-linecap: butt; stroke-dashoffset: 0; stroke-linejoin: miter; stroke-miterlimit: 4; fill: rgb(10,53,58); fill-rule: nonzero; opacity: 1;" vector-effect="non-scaling-stroke" transform=" translate(-528.25, -477.81)" d="M 562.533936 486.289429 C 560.256531 487.588165 558.080078 488.348053 556.023621 489.353546 C 537.114502 498.59906 518.22998 507.894745 499.324738 517.148132 C 497.848694 517.870605 496.270233 518.383789 494.367462 519.041504 C 493.908905 504.61969 493.776581 490.150452 493.820221 475.681793 C 493.823792 474.492157 494.717529 472.736176 495.712341 472.20224 C 517.807983 460.343048 539.976196 448.618958 562.690552 436.572205 C 562.690552 452.858826 562.690552 469.361603 562.533936 486.289429 z" stroke-linecap="round"/>
      </g>
      <g transform="matrix(1 0 0 1 -111.1 232.33)">
        <path style="stroke: rgb(60,84,96); stroke-width: 1; stroke-dasharray: none; stroke-linecap: butt; stroke-dashoffset: 0; stroke-linejoin: miter; stroke-miterlimit: 4; fill: rgb(60,84,96); fill-rule: nonzero; opacity: 1;" vector-effect="non-scaling-stroke" transform=" translate(-401.86, -745.23)" d="M 427.303833 753.082825 C 430.594574 768.497314 423.190369 778.035522 407.932251 778.370178 C 398.44632 778.578308 388.954224 778.490479 379.466003 778.618591 C 377.115509 778.65033 375.636292 778.153259 375.641937 775.377136 C 375.684509 754.421143 375.665192 733.464966 375.665192 711.846436 C 381.142944 711.846436 386.23642 711.845642 391.329895 711.84668 C 395.824921 711.847595 400.320404 711.890808 404.814911 711.843933 C 412.957031 711.758911 420.45282 713.604065 423.94342 721.71106 C 427.392487 729.721619 426.15271 737.396423 419.919922 742.653015 C 422.464722 746.173279 424.820587 749.432251 427.303833 753.082825 M 396.56192 750.551819 C 394.124023 750.551819 391.686127 750.551819 389.123535 750.551819 C 389.123535 755.698914 389.123535 760.311462 389.123535 765.507874 C 395.74115 765.507874 402.200531 765.858215 408.596863 765.374268 C 412.334198 765.091553 415.024933 762.441589 415.029907 758.335083 C 415.035034 754.094727 412.534058 751.398499 408.45343 750.844604 C 404.859589 750.356812 401.163727 750.621155 396.56192 750.551819 M 396.522186 738.289917 C 399.848663 738.226379 403.222595 738.489197 406.489197 738.013977 C 410.280334 737.462524 412.266693 734.680847 412.250549 730.953003 C 412.233795 727.083191 409.539581 725.293152 406.032623 725.157349 C 400.43512 724.940491 394.823059 725.099304 389.234833 725.099304 C 389.234833 729.759705 389.234833 733.817932 389.234833 738.277405 C 391.595337 738.277405 393.570282 738.277405 396.522186 738.289917 z" stroke-linecap="round"/>
      </g>
      <g transform="matrix(1 0 0 1 -33.78 232.38)">
        <path style="stroke: rgb(61,166,165); stroke-width: 1; stroke-dasharray: none; stroke-linecap: butt; stroke-dashoffset: 0; stroke-linejoin: miter; stroke-miterlimit: 4; fill: rgb(61,166,165); fill-rule: nonzero; opacity: 1;" vector-effect="non-scaling-stroke" transform=" translate(-479.18, -745.29)" d="M 453.001099 736 C 452.992767 729.169678 453.180389 722.83075 452.904724 716.512146 C 452.736755 712.662781 454.190857 711.675171 457.840149 711.796448 C 465.494843 712.050964 473.163757 711.894409 480.826782 711.875 C 489.022003 711.854309 496.816925 713.326843 500.912811 721.289185 C 505.065826 729.362732 503.515839 737.11499 497.716095 743.071533 C 500.270752 747.345947 503.587463 750.953003 504.713837 755.148193 C 507.960022 767.238708 500.411285 777.457886 487.464935 778.375183 C 477.184082 779.103699 466.819855 778.63623 456.493134 778.745789 C 453.001526 778.782837 453.042297 776.44519 453.04306 773.9823 C 453.046906 761.48822 453.018707 748.99408 453.001099 736 M 488.642151 764.39917 C 493.650024 759.018127 492.736847 752.050476 486.505554 751.256287 C 480.014221 750.428894 473.335541 751.071655 466.264954 751.071655 C 466.264954 755.340759 466.118439 759.143188 466.370087 762.919128 C 466.431366 763.838928 467.806183 765.430481 468.567566 765.424866 C 475.025482 765.377747 481.481262 765.03241 488.642151 764.39917 M 489.407745 733.76178 C 490.153656 728.627686 488.790894 725.844116 484.28894 725.471558 C 478.435577 724.987183 472.511871 725.353149 466.228485 725.353149 C 466.228485 728.742981 466.203552 731.690796 466.242798 734.637817 C 466.255493 735.594116 466.436188 736.548096 466.587158 737.936584 C 472.715424 737.936584 478.631287 738.177002 484.503876 737.778625 C 486.103424 737.670105 487.57251 735.638123 489.407745 733.76178 z" stroke-linecap="round"/>
      </g>
      <g transform="matrix(1 0 0 1 224.7 232.36)">
        <path style="stroke: rgb(64,167,167); stroke-width: 1; stroke-dasharray: none; stroke-linecap: butt; stroke-dashoffset: 0; stroke-linejoin: miter; stroke-miterlimit: 4; fill: rgb(64,167,167); fill-rule: nonzero; opacity: 1;" vector-effect="non-scaling-stroke" transform=" translate(-737.66, -745.27)" d="M 709.049622 737 C 709.051331 729.841125 709.243286 723.174988 708.985107 716.526245 C 708.835754 712.681824 710.297913 711.650391 713.934448 711.810181 C 719.915894 712.073181 725.917358 711.868408 731.910339 711.881531 C 756.705811 711.935852 771.820435 732.669189 764.49176 756.566528 C 760.466858 769.690918 749.390259 778.076599 734.992249 778.590393 C 727.842712 778.84552 720.67395 778.534546 713.521301 778.738831 C 709.90863 778.84198 708.994202 777.287292 709.028442 773.956787 C 709.153381 761.805725 709.06134 749.652466 709.049622 737 M 723.741394 764.927795 C 727.387634 765.014038 731.039001 765.267456 734.679016 765.15387 C 743.964966 764.864075 750.674744 759.110352 752.127441 750.399963 C 754.122131 738.440002 750.414551 729.401306 741.082458 726.566406 C 735.444214 724.853699 729.185791 725.182251 723.067505 724.580017 C 723.067505 738.680298 723.067505 751.458862 723.741394 764.927795 z" stroke-linecap="round"/>
      </g>
      <g transform="matrix(1 0 0 1 162.34 232.45)">
        <path style="stroke: rgb(64,167,167); stroke-width: 1; stroke-dasharray: none; stroke-linecap: butt; stroke-dashoffset: 0; stroke-linejoin: miter; stroke-miterlimit: 4; fill: rgb(64,167,167); fill-rule: nonzero; opacity: 1;" vector-effect="non-scaling-stroke" transform=" translate(-675.31, -745.35)" d="M 689.044739 759.938232 C 693.384033 765.75 697.503052 771.283752 701.736267 776.970886 C 693.263428 780.743286 686.604187 778.996643 682.177185 772.608582 C 679.047791 768.092896 675.871704 763.601685 672.506958 759.262024 C 671.59436 758.085022 670.011292 756.982422 668.58075 756.732117 C 663.348022 755.816284 662.49884 756.678162 662.518188 762.019043 C 662.533264 766.184753 662.461365 770.355347 662.644531 774.514282 C 662.773865 777.44989 661.784363 778.622498 658.691467 778.737732 C 649.051331 779.096985 649.051941 779.213562 649.037109 769.751953 C 649.009766 752.255493 649.085144 734.757935 648.888245 717.263428 C 648.843506 713.286621 649.756226 711.577515 654.129089 711.775208 C 661.778625 712.120911 669.455688 711.80188 677.118958 711.911926 C 689.034241 712.083008 697.33252 717.69696 699.77887 727.074829 C 702.739319 738.423584 698.292847 748.526367 687.765747 754.389771 C 687.197571 754.706177 686.665039 755.086426 685.733521 755.681152 C 686.837585 757.102417 687.830994 758.381287 689.044739 759.938232 M 662.312561 735.412598 C 662.331421 737.244446 662.048889 739.15094 662.477356 740.881287 C 662.752686 741.99292 664.061096 743.664368 664.929504 743.67865 C 669.904785 743.760376 674.949829 743.840454 679.848755 743.105103 C 684.648071 742.384705 687.338989 738.110413 687.106567 733.192261 C 686.893433 728.682556 684.349976 725.762512 680.139587 725.380493 C 674.411743 724.86084 668.60144 725.251038 662.289429 725.251038 C 662.289429 728.555603 662.289429 731.509094 662.312561 735.412598 z" stroke-linecap="round"/>
      </g>
      <g transform="matrix(1 0 0 1 -178.69 232.46)">
        <path style="stroke: rgb(60,84,96); stroke-width: 1; stroke-dasharray: none; stroke-linecap: butt; stroke-dashoffset: 0; stroke-linejoin: miter; stroke-miterlimit: 4; fill: rgb(60,84,96); fill-rule: nonzero; opacity: 1;" vector-effect="non-scaling-stroke" transform=" translate(-334.27, -745.36)" d="M 321.434998 713.314575 C 339.701508 707.141357 357.302765 713.857422 364.137695 729.310364 C 371.867645 746.786743 366.247101 766.788818 350.701233 775.118103 C 338.7995 781.494873 326.470093 781.315857 315.102448 773.834045 C 303.075226 765.918213 299.844025 753.778137 301.283966 740.135376 C 302.623657 727.442139 309.393494 718.584229 321.434998 713.314575 M 345.187866 727.1203 C 335.309265 721.860718 324.73822 723.523926 318.491028 731.320557 C 312.5336 738.755615 312.828278 751.514038 319.135742 759.233948 C 327.8284 769.873413 345.250153 768.116638 351.6203 755.958313 C 356.704803 746.253784 354.333344 734.694519 345.187866 727.1203 z" stroke-linecap="round"/>
      </g>
      <g transform="matrix(1 0 0 1 31.14 232.03)">
        <path style="stroke: rgb(64,167,167); stroke-width: 1; stroke-dasharray: none; stroke-linecap: butt; stroke-dashoffset: 0; stroke-linejoin: miter; stroke-miterlimit: 4; fill: rgb(64,167,167); fill-rule: nonzero; opacity: 1;" vector-effect="non-scaling-stroke" transform=" translate(-544.1, -744.93)" d="M 565.761658 771.763611 C 549.734253 783.862305 527.77948 781.196716 517.206787 766.132385 C 505.847809 749.947937 509.906494 725.750732 526.060303 715.830994 C 537.661377 708.707092 549.937439 708.743347 561.56842 715.655884 C 573.618713 722.817627 578.095093 734.389282 577.380371 747.935303 C 576.890747 757.215149 573.295471 765.338806 565.761658 771.763611 M 562.516113 736.33606 C 557.760803 726.851013 549.691406 722.551331 540.227844 724.4599 C 530.423523 726.437195 525.20813 732.645813 524.311584 743.407227 C 523.361267 754.814331 530.599609 764.750793 540.805298 766.049011 C 552.498169 767.536499 561.92334 760.685608 563.561707 748.906372 C 564.095154 745.071533 563.104065 741.024597 562.516113 736.33606 z" stroke-linecap="round"/>
      </g>
      <g transform="matrix(1 0 0 1 -196.37 -24.17)">
        <path style="stroke: rgb(57,163,161); stroke-width: 1; stroke-dasharray: none; stroke-linecap: butt; stroke-dashoffset: 0; stroke-linejoin: miter; stroke-miterlimit: 4; fill: rgb(57,163,161); fill-rule: nonzero; opacity: 1;" vector-effect="non-scaling-stroke" transform=" translate(-316.6, -488.73)" d="M 352.86084 499.328186 C 339.741577 502.941864 326.674591 506.761536 313.486755 510.104706 C 302.698975 512.839417 291.770599 515.021545 280.895691 517.408264 C 279.200256 517.780334 277.45752 517.936768 275.220062 517.261719 C 279.98465 512.255554 284.733582 507.234406 289.516968 502.246277 C 301.258362 490.002472 313.00174 477.760437 324.791504 465.563263 C 325.78244 464.538025 327.12677 463.854431 328.833496 463.265747 C 329.936188 463.270935 330.512329 463.022522 331.08844 462.774109 C 331.567444 462.551086 332.046417 462.328094 333.091064 462.396118 C 340.58551 461.704712 347.514313 460.722229 354.443085 459.739746 C 354.628357 459.982422 354.813599 460.225098 354.998871 460.467773 C 353.132843 461.659393 351.266815 462.850983 349.428986 464.024567 C 350.714417 469.44693 351.900299 475.046051 353.391785 480.5625 C 354.715027 485.456665 356.377686 490.259064 357.987152 495.411346 C 357.485718 495.98465 356.393585 497.233337 355.301453 498.482056 C 355.301422 498.482025 355.190277 498.436951 354.857971 498.299683 C 353.970734 498.550995 353.415802 498.939575 352.86084 499.328186 z" stroke-linecap="round"/>
      </g>
      <g transform="matrix(1 0 0 1 97.21 232.47)">
        <path style="stroke: rgb(64,167,167); stroke-width: 1; stroke-dasharray: none; stroke-linecap: butt; stroke-dashoffset: 0; stroke-linejoin: miter; stroke-miterlimit: 4; fill: rgb(64,167,167); fill-rule: nonzero; opacity: 1;" vector-effect="non-scaling-stroke" transform=" translate(-610.18, -745.38)" d="M 583.250427 762.193115 C 589.549194 746.754822 595.755432 731.694275 601.826904 716.579712 C 603.05188 713.530151 604.40863 711.233765 608.244629 711.83844 C 612.166626 712.456665 616.71283 710.202332 619.022766 716.173645 C 626.636902 735.85614 634.733093 755.352051 642.603394 774.935974 C 642.94873 775.795349 642.891235 776.816589 643.143616 778.650146 C 638.71814 778.650146 634.610107 779.021118 630.643494 778.434692 C 629.376221 778.247375 628.166138 775.651062 627.473511 773.937195 C 623.847534 764.963928 623.908325 764.946045 614.461609 765.010071 C 609.804626 765.041565 605.142578 765.17688 600.492249 765.006897 C 597.799744 764.908325 595.964355 765.538208 595.393066 768.407288 C 595.265198 769.049377 594.937866 769.654907 594.678955 770.267334 C 590.899536 779.206177 588.012329 780.52356 577.217651 777.641418 C 579.198914 772.567932 581.154663 767.559875 583.250427 762.193115 M 605.261292 742.746216 C 604.131897 745.985168 603.002502 749.224121 601.766968 752.767456 C 607.764587 752.767456 613.213928 752.767456 619.229492 752.767456 C 616.210693 744.999329 613.423462 737.827209 610.21344 729.5672 C 608.412109 734.383972 606.983093 738.204956 605.261292 742.746216 z" stroke-linecap="round"/>
      </g>
      <g transform="matrix(1 0 0 1 -70.54 -63.17)">
        <path style="stroke: rgb(42,133,133); stroke-width: 1; stroke-dasharray: none; stroke-linecap: butt; stroke-dashoffset: 0; stroke-linejoin: miter; stroke-miterlimit: 4; fill: rgb(42,133,133); fill-rule: nonzero; opacity: 1;" vector-effect="non-scaling-stroke" transform=" translate(-442.43, -449.74)" d="M 417.99762 437.996887 C 428.848328 434.095093 439.691132 430.171112 450.553741 426.302704 C 454.75824 424.805389 459.007629 423.434052 463.838226 422.268677 C 465.246399 423.230927 466.052887 423.92984 466.859436 424.628784 C 465.944427 425.415375 464.92868 426.113495 464.14035 427.011322 C 463.189331 428.094391 461.473541 430.076935 461.732697 430.416931 C 465.907867 435.89386 463.722626 442.43454 464.979309 448.353729 C 465.568512 451.128967 466.021454 453.933197 466.536163 456.724274 C 466.804413 457.876007 465.414795 458.565613 464.157043 459.444061 C 462.332031 460.71875 460.602264 462.129761 458.831879 463.482666 C 446.505127 468.160126 434.178375 472.837585 421.562225 477.21286 C 425.472839 474.77066 429.672821 472.630646 434.655304 470.091919 C 430.397369 468.502869 427.262329 467.332855 424.761322 466.399506 C 424.601715 463.070618 424.955475 460.213409 424.246124 457.650452 C 422.413788 451.029907 420.111938 444.539337 417.99762 437.996887 z" stroke-linecap="round"/>
      </g>
      <g transform="matrix(1 0 0 1 -108.56 -49.73)">
        <path style="stroke: rgb(48,145,144); stroke-width: 1; stroke-dasharray: none; stroke-linecap: butt; stroke-dashoffset: 0; stroke-linejoin: miter; stroke-miterlimit: 4; fill: rgb(48,145,144); fill-rule: nonzero; opacity: 1;" vector-effect="non-scaling-stroke" transform=" translate(-404.41, -463.17)" d="M 417.611572 438.00531 C 420.111938 444.539337 422.413788 451.029907 424.246124 457.650452 C 424.955475 460.213409 424.601715 463.070618 424.761322 466.399506 C 427.262329 467.332855 430.397369 468.502869 434.655304 470.091919 C 429.672821 472.630646 425.472839 474.77066 421.164307 477.282288 C 410.334717 481.327423 399.613647 485.000916 388.562042 488.342407 C 392.166077 482.84549 386.850342 483.570953 385.689423 482.988403 C 384.649261 473.917084 383.696899 465.611603 382.744507 457.306122 C 383.618347 455.605225 388.555908 454.846466 385.368164 451.5672 C 380.847565 451.5672 377.508514 451.5672 374.169434 451.5672 C 384.267426 448.387299 394.365387 445.207397 404.869629 441.99939 C 409.259094 440.65213 413.24234 439.332947 417.611572 438.00531 M 392.586884 484.517151 C 392.586884 484.517151 392.476715 484.582672 392.586884 484.517151 z" stroke-linecap="round"/>
      </g>
      <g transform="matrix(1 0 0 1 -29.91 -76.98)">
        <path style="stroke: rgb(37,121,122); stroke-width: 1; stroke-dasharray: none; stroke-linecap: butt; stroke-dashoffset: 0; stroke-linejoin: miter; stroke-miterlimit: 4; fill: rgb(37,121,122); fill-rule: nonzero; opacity: 1;" vector-effect="non-scaling-stroke" transform=" translate(-483.05, -435.92)" d="M 459.244202 463.430664 C 460.602264 462.129761 462.332031 460.71875 464.157043 459.444061 C 465.414795 458.565613 466.804413 457.876007 466.536163 456.724274 C 466.021454 453.933197 465.568512 451.128967 464.979309 448.353729 C 463.722626 442.43454 465.907867 435.89386 461.732697 430.416931 C 461.473541 430.076935 463.189331 428.094391 464.14035 427.011322 C 464.92868 426.113495 465.944427 425.415375 466.859436 424.628784 C 466.052887 423.92984 465.246399 423.230927 464.222534 422.258667 C 467.514343 420.316681 471.023438 418.648041 475.269165 416.870789 C 482.098694 414.203735 488.19162 411.645325 494.284546 409.086884 C 495.948761 408.754517 497.612976 408.42215 499.631561 408.418945 C 499.113098 410.216644 498.240265 411.685272 497.299072 413.26889 C 498.48996 414.141785 499.636993 414.982513 501.06662 416.030396 C 494.369263 421.844177 501.372986 427.743408 500.569153 433.599792 C 500.522644 433.938751 502.064392 434.674957 502.952209 434.932739 C 507.379669 436.218323 507.896484 437.435211 505.268616 441.311737 C 504.36554 442.64389 503.089722 443.723419 501.984192 444.918365 C 487.874969 451.071808 473.765747 457.22525 459.244202 463.430664 z" stroke-linecap="round"/>
      </g>
      <g transform="matrix(1 0 0 1 -151.48 -37.87)">
        <path style="stroke: rgb(52,154,153); stroke-width: 1; stroke-dasharray: none; stroke-linecap: butt; stroke-dashoffset: 0; stroke-linejoin: miter; stroke-miterlimit: 4; fill: rgb(52,154,153); fill-rule: nonzero; opacity: 1;" vector-effect="non-scaling-stroke" transform=" translate(-361.49, -475.04)" d="M 374.177216 451.580872 C 377.508514 451.5672 380.847565 451.5672 385.368164 451.5672 C 388.555908 454.846466 383.618347 455.605225 382.744507 457.306122 C 383.696899 465.611603 384.649261 473.917084 385.689423 482.988403 C 386.850342 483.570953 392.166077 482.84549 388.147095 488.378601 C 377.405029 492.013275 366.747406 495.279724 355.695618 498.514099 C 356.393585 497.233337 357.485718 495.98465 357.987152 495.411346 C 356.377686 490.259064 354.715027 485.456665 353.391785 480.5625 C 351.900299 475.046051 350.714417 469.44693 349.428986 464.024567 C 351.266815 462.850983 353.132843 461.659393 354.998871 460.467773 C 354.813599 460.225098 354.628357 459.982422 354.443085 459.739746 C 347.514313 460.722229 340.58551 461.704712 333.358887 462.436523 C 344.457764 459.155731 355.854462 456.12558 367.901306 453.364807 C 370.42038 452.954712 372.289307 452.275238 374.158264 451.595764 C 374.158264 451.595764 374.184998 451.594574 374.177216 451.580872 M 376.412079 453.482208 C 376.412079 453.482208 376.522949 453.41684 376.412079 453.482208 z" stroke-linecap="round"/>
      </g>
      <g transform="matrix(1 0 0 1 114.5 -145.45)">
        <path style="stroke: rgb(19,81,86); stroke-width: 1; stroke-dasharray: none; stroke-linecap: butt; stroke-dashoffset: 0; stroke-linejoin: miter; stroke-miterlimit: 4; fill: rgb(19,81,86); fill-rule: nonzero; opacity: 1;" vector-effect="non-scaling-stroke" transform=" translate(-627.46, -367.45)" d="M 612.251892 358.064423 C 611.728699 356.947266 611.504883 355.413971 610.630554 354.785034 C 606.881531 352.088318 602.940979 349.657898 598.242432 346.589874 C 617.989868 344.267212 636.891174 340.947632 656.675476 343.864563 C 652.662842 361.351959 646.431641 377.571594 636.493774 392.173309 C 634.289978 386.201782 632.11084 380.296875 629.683105 374.185791 C 629.470825 373.239807 629.837891 372.172852 629.486023 371.817108 C 627.997559 370.312561 626.334656 368.969208 624.663208 367.659302 C 620.547363 364.433868 616.391602 361.259399 612.251892 358.064423 z" stroke-linecap="round"/>
      </g>
      <g transform="matrix(1 0 0 1 -241.88 232.59)">
        <path style="stroke: rgb(59,81,92); stroke-width: 1; stroke-dasharray: none; stroke-linecap: butt; stroke-dashoffset: 0; stroke-linejoin: miter; stroke-miterlimit: 4; fill: rgb(59,81,92); fill-rule: nonzero; opacity: 1;" vector-effect="non-scaling-stroke" transform=" translate(-271.08, -745.5)" d="M 278.910614 717.129089 C 278.189392 712.529785 280.107666 711.584534 283.957245 711.701111 C 293.313416 711.984558 292.164215 710.724121 292.168488 720.01062 C 292.174347 732.841064 292.200165 745.671936 292.1138 758.501892 C 292.05188 767.696899 287.44809 774.552551 279.495636 777.635742 C 270.695923 781.047424 260.902527 779.11084 254.977051 772.803101 C 250.246811 767.767883 249.266373 761.778198 250.362976 754.815369 C 254.523849 754.815369 258.59079 754.815369 262.919495 754.815369 C 263.081055 756.272339 263.164734 757.576233 263.378754 758.858337 C 264.133087 763.376465 267.448212 766.319031 271.493927 766.116638 C 275.625427 765.910034 278.667664 762.819153 278.727661 758.104614 C 278.899414 744.609497 278.865265 731.111694 278.910614 717.129089 z" stroke-linecap="round"/>
      </g>
      <g transform="matrix(1 0 0 1 2.51 -92.28)">
        <path style="stroke: rgb(30,110,111); stroke-width: 1; stroke-dasharray: none; stroke-linecap: butt; stroke-dashoffset: 0; stroke-linejoin: miter; stroke-miterlimit: 4; fill: rgb(30,110,111); fill-rule: nonzero; opacity: 1;" vector-effect="non-scaling-stroke" transform=" translate(-515.48, -420.63)" d="M 502.374573 445.000488 C 503.089722 443.723419 504.36554 442.64389 505.268616 441.311737 C 507.896484 437.435211 507.379669 436.218323 502.952209 434.932739 C 502.064392 434.674957 500.522644 433.938751 500.569153 433.599792 C 501.372986 427.743408 494.369263 421.844177 501.06662 416.030396 C 499.636993 414.982513 498.48996 414.141785 497.299072 413.26889 C 498.240265 411.685272 499.113098 410.216644 499.996399 408.389709 C 510.074005 404.030609 520.141174 400.029785 530.762207 396.25589 C 531.427734 397.303345 531.898438 398.329163 531.572449 398.899506 C 530.986877 399.923889 529.168823 400.686554 529.18219 401.537994 C 529.262634 406.688507 529.406128 411.884338 530.241455 416.947357 C 530.47937 418.389587 533.090454 419.440277 533.664856 419.904358 C 532.850342 424.522064 532.147461 428.506836 531.444519 432.491577 C 531.444519 432.491577 531.360535 432.478577 530.980042 432.347351 C 530.099548 432.669159 529.599548 433.122253 529.099487 433.575378 C 520.32135 437.411133 511.543152 441.246887 502.374573 445.000488 z" stroke-linecap="round"/>
      </g>
      <g transform="matrix(1 0 0 1 32.93 -105.54)">
        <path style="stroke: rgb(25,99,101); stroke-width: 1; stroke-dasharray: none; stroke-linecap: butt; stroke-dashoffset: 0; stroke-linejoin: miter; stroke-miterlimit: 4; fill: rgb(25,99,101); fill-rule: nonzero; opacity: 1;" vector-effect="non-scaling-stroke" transform=" translate(-545.9, -407.36)" d="M 531.787842 432.409637 C 532.147461 428.506836 532.850342 424.522064 533.664856 419.904358 C 533.090454 419.440277 530.47937 418.389587 530.241455 416.947357 C 529.406128 411.884338 529.262634 406.688507 529.18219 401.537994 C 529.168823 400.686554 530.986877 399.923889 531.572449 398.899506 C 531.898438 398.329163 531.427734 397.303345 531.133667 396.208191 C 541.366333 391.272461 551.781311 386.611389 562.582886 382.314545 C 561.731934 384.265503 560.266174 385.729706 559.328186 387.477203 C 558.557861 388.912201 557.748901 391.92868 558.096313 392.114563 C 561.72345 394.054932 560.627563 396.73349 560.198364 399.785522 C 559.852173 402.247772 560.384644 405.071747 561.319031 407.420227 C 562.734375 410.977417 563.402527 414.245056 561.102417 417.598999 C 551.445374 422.508545 541.788269 427.418121 531.787842 432.409637 z" stroke-linecap="round"/>
      </g>
      <g transform="matrix(1 0 0 1 91.25 -135.4)">
        <path style="stroke: rgb(11,70,74); stroke-width: 1; stroke-dasharray: none; stroke-linecap: butt; stroke-dashoffset: 0; stroke-linejoin: miter; stroke-miterlimit: 4; fill: rgb(11,70,74); fill-rule: nonzero; opacity: 1;" vector-effect="non-scaling-stroke" transform=" translate(-604.22, -377.5)" d="M 611.899902 358.153381 C 616.391602 361.259399 620.547363 364.433868 624.663208 367.659302 C 626.334656 368.969208 627.997559 370.312561 629.486023 371.817108 C 629.837891 372.172852 629.470825 373.239807 629.270264 374.189697 C 620.004761 380.686951 610.896912 386.964752 601.807617 393.269379 C 600.059753 394.481689 598.385071 395.799469 596.343262 396.847992 C 596.339844 395.08493 596.669922 393.54245 597.364319 391.993896 C 598.772095 391.447845 599.815552 390.907898 600.858948 390.36795 C 600.429504 389.838409 600.000061 389.308868 599.570618 388.779358 C 598.713745 389.852905 597.856873 390.926453 596.6073 392.011475 C 594.923218 392.650726 593.651733 393.724457 592.3349 393.783295 C 590.962585 393.844635 588.411438 393.062683 588.334167 392.415588 C 587.838623 388.265076 587.88916 384.049988 587.743286 379.85675 C 587.692749 378.404907 588.136475 376.221832 587.393005 375.671448 C 586.205811 374.792572 584.22052 374.949188 582.562012 374.763641 C 581.316895 374.624329 580.055115 374.635071 578.80072 374.579041 C 589.716431 369.133453 600.632202 363.687897 611.899902 358.153381 z" stroke-linecap="round"/>
      </g>
      <g transform="matrix(1 0 0 1 64.35 -116.84)">
        <path style="stroke: rgb(19,81,86); stroke-width: 1; stroke-dasharray: none; stroke-linecap: butt; stroke-dashoffset: 0; stroke-linejoin: miter; stroke-miterlimit: 4; fill: rgb(19,81,86); fill-rule: nonzero; opacity: 1;" vector-effect="non-scaling-stroke" transform=" translate(-577.31, -396.06)" d="M 578.529663 374.633118 C 580.055115 374.635071 581.316895 374.624329 582.562012 374.763641 C 584.22052 374.949188 586.205811 374.792572 587.393005 375.671448 C 588.136475 376.221832 587.692749 378.404907 587.743286 379.85675 C 587.88916 384.049988 587.838623 388.265076 588.334167 392.415588 C 588.411438 393.062683 590.962585 393.844635 592.3349 393.783295 C 593.651733 393.724457 594.923218 392.650726 596.6073 392.011475 C 596.669922 393.54245 596.339844 395.08493 595.994629 396.939087 C 584.596802 403.960541 573.214172 410.670288 561.46698 417.489502 C 563.402527 414.245056 562.734375 410.977417 561.319031 407.420227 C 560.384644 405.071747 559.852173 402.247772 560.198364 399.785522 C 560.627563 396.73349 561.72345 394.054932 558.096313 392.114563 C 557.748901 391.92868 558.557861 388.912201 559.328186 387.477203 C 560.266174 385.729706 561.731934 384.265503 562.957825 382.301147 C 562.946228 381.923492 563.030212 381.505463 563.018921 381.292603 C 567.091187 379.396179 571.174744 377.712585 575.762024 376.167725 C 576.46991 376.046539 576.674072 375.786591 576.878235 375.526672 C 577.338379 375.246857 577.798523 374.967041 578.529663 374.633118 M 587.411255 396.48288 C 587.411255 396.48288 587.524414 396.415253 587.411255 396.48288 z" stroke-linecap="round"/>
      </g>
      <g transform="matrix(1 0 0 1 11.86 -265.32)">
        <path style="stroke: rgb(52,154,153); stroke-width: 1; stroke-dasharray: none; stroke-linecap: butt; stroke-dashoffset: 0; stroke-linejoin: miter; stroke-miterlimit: 4; fill: rgb(52,154,153); fill-rule: nonzero; opacity: 1;" vector-effect="non-scaling-stroke" transform=" translate(-524.83, -247.58)" d="M 409.061371 248.933868 C 408.268066 249.013535 407.775269 248.756744 407.173492 247.986786 C 407.086456 247.110886 407.108429 246.748199 407.130402 246.385498 C 420.790833 246.302338 434.451233 246.219162 448.901367 246.435379 C 464.509949 246.82225 479.328827 246.923508 494.147858 246.964508 C 495.081909 246.967102 496.017273 246.499649 496.952026 246.250885 C 523.339233 246.217117 549.72644 246.18335 576.903076 246.445557 C 582.78009 246.574615 587.867615 246.407669 592.955139 246.240738 C 595.355164 246.205658 597.755127 246.170578 600.922119 246.439346 C 612.108398 246.601837 622.527832 246.460464 632.947205 246.319107 C 636.010559 246.510437 639.073853 246.701767 642.546997 247.004303 C 640.875793 247.410339 638.794983 247.961655 636.713867 247.962906 C 563.055908 248.00705 489.397949 247.994598 415.73999 248.024506 C 413.613892 248.02536 411.487915 248.398087 409.061371 248.933868 z" stroke-linecap="round"/>
      </g>
      <g transform="matrix(1 0 0 1 -38.42 22.01)">
        <path style="stroke: rgb(57,80,92); stroke-width: 1; stroke-dasharray: none; stroke-linecap: butt; stroke-dashoffset: 0; stroke-linejoin: miter; stroke-miterlimit: 4; fill: rgb(57,80,92); fill-rule: nonzero; opacity: 1;" vector-effect="non-scaling-stroke" transform=" translate(-474.54, -534.92)" d="M 475.079468 563.536621 C 474.659729 562.772034 474.047119 561.547302 474.042816 560.320496 C 473.982422 543.052856 474.000549 525.784973 474.023895 508.517181 C 474.02478 507.874969 474.272583 507.233093 474.700867 506.29599 C 475.054108 525.025757 475.111786 544.050659 475.079468 563.536621 z" stroke-linecap="round"/>
      </g>
      <g transform="matrix(1 0 0 1 -40.03 -266.36)">
        <path style="stroke: rgb(119,159,161); stroke-width: 1; stroke-dasharray: none; stroke-linecap: butt; stroke-dashoffset: 0; stroke-linejoin: miter; stroke-miterlimit: 4; fill: rgb(119,159,161); fill-rule: nonzero; opacity: 1;" vector-effect="non-scaling-stroke" transform=" translate(-472.94, -246.54)" d="M 496.501709 246.132446 C 496.017273 246.499649 495.081909 246.967102 494.147858 246.964508 C 479.328827 246.923508 464.509949 246.82225 449.3703 246.486328 C 464.716858 246.163269 480.384125 246.088654 496.501709 246.132446 z" stroke-linecap="round"/>
      </g>
      <g transform="matrix(1 0 0 1 103.97 -266.56)">
        <path style="stroke: rgb(119,159,161); stroke-width: 1; stroke-dasharray: none; stroke-linecap: butt; stroke-dashoffset: 0; stroke-linejoin: miter; stroke-miterlimit: 4; fill: rgb(119,159,161); fill-rule: nonzero; opacity: 1;" vector-effect="non-scaling-stroke" transform=" translate(-616.94, -246.34)" d="M 632.501221 246.18428 C 622.527832 246.460464 612.108398 246.601837 601.369019 246.493439 C 611.38446 246.178925 621.719849 246.114197 632.501221 246.18428 z" stroke-linecap="round"/>
      </g>
      <g transform="matrix(1 0 0 1 71.98 -266.58)">
        <path style="stroke: rgb(119,159,161); stroke-width: 1; stroke-dasharray: none; stroke-linecap: butt; stroke-dashoffset: 0; stroke-linejoin: miter; stroke-miterlimit: 4; fill: rgb(119,159,161); fill-rule: nonzero; opacity: 1;" vector-effect="non-scaling-stroke" transform=" translate(-584.94, -246.32)" d="M 592.505066 246.12796 C 587.867615 246.407669 582.78009 246.574615 577.372314 246.495529 C 582.052979 246.171402 587.054016 246.093292 592.505066 246.12796 z" stroke-linecap="round"/>
      </g>
      <g transform="matrix(1 0 0 1 -141.94 -60.42)">
        <path style="stroke: rgb(48,145,144); stroke-width: 1; stroke-dasharray: none; stroke-linecap: butt; stroke-dashoffset: 0; stroke-linejoin: miter; stroke-miterlimit: 4; fill: rgb(48,145,144); fill-rule: nonzero; opacity: 1;" vector-effect="non-scaling-stroke" transform=" translate(-371.02, -452.49)" d="M 373.75354 451.597351 C 372.289307 452.275238 370.42038 452.954712 368.296234 453.382385 C 369.810303 452.620026 371.57959 452.109467 373.75354 451.597351 z" stroke-linecap="round"/>
      </g>
      <g transform="matrix(1 0 0 1 -38.91 -29.58)">
        <path style="stroke: rgb(57,80,92); stroke-width: 1; stroke-dasharray: none; stroke-linecap: butt; stroke-dashoffset: 0; stroke-linejoin: miter; stroke-miterlimit: 4; fill: rgb(57,80,92); fill-rule: nonzero; opacity: 1;" vector-effect="non-scaling-stroke" transform=" translate(-474.06, -483.33)" d="M 475.072571 483.654999 C 474.398834 483.761719 473.80014 483.524689 473.038483 482.998047 C 473.632904 482.909332 474.390228 483.11026 475.072571 483.654999 z" stroke-linecap="round"/>
      </g>
      <g transform="matrix(1 0 0 1 -158.92 -14.12)">
        <path style="stroke: rgb(52,154,153); stroke-width: 1; stroke-dasharray: none; stroke-linecap: butt; stroke-dashoffset: 0; stroke-linejoin: miter; stroke-miterlimit: 4; fill: rgb(52,154,153); fill-rule: nonzero; opacity: 1;" vector-effect="non-scaling-stroke" transform=" translate(-354.05, -498.78)" d="M 353.212341 499.324402 C 353.415802 498.939575 353.970734 498.550995 354.882324 498.244873 C 354.680573 498.658417 354.122223 498.989502 353.212341 499.324402 z" stroke-linecap="round"/>
      </g>
      <g transform="matrix(1 0 0 1 -183.01 -49.88)">
        <path style="stroke: rgb(52,154,153); stroke-width: 1; stroke-dasharray: none; stroke-linecap: butt; stroke-dashoffset: 0; stroke-linejoin: miter; stroke-miterlimit: 4; fill: rgb(52,154,153); fill-rule: nonzero; opacity: 1;" vector-effect="non-scaling-stroke" transform=" translate(-329.96, -463.03)" d="M 330.73468 462.753296 C 330.512329 463.022522 329.936188 463.270935 329.188477 463.297913 C 329.471588 462.961792 329.92627 462.847137 330.73468 462.753296 z" stroke-linecap="round"/>
      </g>
      <g transform="matrix(1 0 0 1 17.23 -80)">
        <path style="stroke: rgb(25,99,101); stroke-width: 1; stroke-dasharray: none; stroke-linecap: butt; stroke-dashoffset: 0; stroke-linejoin: miter; stroke-miterlimit: 4; fill: rgb(25,99,101); fill-rule: nonzero; opacity: 1;" vector-effect="non-scaling-stroke" transform=" translate(-530.2, -432.9)" d="M 529.42041 433.503845 C 529.599548 433.122253 530.099548 432.669159 530.97168 432.305634 C 530.80957 432.740906 530.275452 433.086639 529.42041 433.503845 z" stroke-linecap="round"/>
      </g>
      <g transform="matrix(1 0 0 1 -38.02 -21.48)">
        <path style="stroke: rgb(57,80,92); stroke-width: 1; stroke-dasharray: none; stroke-linecap: butt; stroke-dashoffset: 0; stroke-linejoin: miter; stroke-miterlimit: 4; fill: rgb(57,80,92); fill-rule: nonzero; opacity: 1;" vector-effect="non-scaling-stroke" transform=" translate(-474.94, -491.42)" d="M 475.066772 491.749695 C 474.884979 491.725555 474.774658 491.451843 474.830505 491.089355 C 475.043823 491.167053 475.091034 491.333557 475.066772 491.749695 z" stroke-linecap="round"/>
      </g>
      <g transform="matrix(1 0 0 1 63.41 -137.03)">
        <path style="stroke: rgb(11,70,74); stroke-width: 1; stroke-dasharray: none; stroke-linecap: butt; stroke-dashoffset: 0; stroke-linejoin: miter; stroke-miterlimit: 4; fill: rgb(11,70,74); fill-rule: nonzero; opacity: 1;" vector-effect="non-scaling-stroke" transform=" translate(-576.38, -375.87)" d="M 576.623108 375.580017 C 576.674072 375.786591 576.46991 376.046539 576.128784 376.15036 C 576.117249 375.873962 576.242615 375.753662 576.623108 375.580017 z" stroke-linecap="round"/>
      </g>
      <g transform="matrix(1 0 0 1 -28.27 -145.81)"/>
      <g transform="matrix(1 0 0 1 -110.89 245.18)"/>
      <g transform="matrix(1 0 0 1 -112.22 218.77)"/>
      <g transform="matrix(1 0 0 1 -33.95 245.23)"/>
      <g transform="matrix(1 0 0 1 -35.1 218.71)"/>
      <g transform="matrix(1 0 0 1 224.89 231.98)"/>
      <g transform="matrix(1 0 0 1 161.71 221.52)"/>
      <g transform="matrix(1 0 0 1 -178.73 232.28)"/>
      <g transform="matrix(1 0 0 1 31 232.23)"/>
      <g transform="matrix(1 0 0 1 -120.43 -28.35)">
        <path style="stroke: rgb(52,154,153); stroke-width: 1; stroke-dasharray: none; stroke-linecap: butt; stroke-dashoffset: 0; stroke-linejoin: miter; stroke-miterlimit: 4; fill: rgb(52,154,153); fill-rule: nonzero; opacity: 1;" vector-effect="non-scaling-stroke" transform=" translate(-392.53, -484.55)" d="M 392.531799 484.549927 C 392.476715 484.582672 392.586884 484.517151 392.531799 484.549927 z" stroke-linecap="round"/>
      </g>
      <g transform="matrix(1 0 0 1 -136.49 -59.45)">
        <path style="stroke: rgb(48,145,144); stroke-width: 1; stroke-dasharray: none; stroke-linecap: butt; stroke-dashoffset: 0; stroke-linejoin: miter; stroke-miterlimit: 4; fill: rgb(48,145,144); fill-rule: nonzero; opacity: 1;" vector-effect="non-scaling-stroke" transform=" translate(-376.47, -453.45)" d="M 376.467529 453.449524 C 376.522949 453.41684 376.412079 453.482208 376.467529 453.449524 z" stroke-linecap="round"/>
      </g>
      <g transform="matrix(1 0 0 1 86.15 -122.51)">
        <path style="stroke: rgb(19,81,86); stroke-width: 1; stroke-dasharray: none; stroke-linecap: butt; stroke-dashoffset: 0; stroke-linejoin: miter; stroke-miterlimit: 4; fill: rgb(19,81,86); fill-rule: nonzero; opacity: 1;" vector-effect="non-scaling-stroke" transform=" translate(-599.11, -390.39)" d="M 597.364319 391.993896 C 597.856873 390.926453 598.713745 389.852905 599.570618 388.779358 C 600.000061 389.308868 600.429504 389.838409 600.858948 390.36795 C 599.815552 390.907898 598.772095 391.447845 597.364319 391.993896 z" stroke-linecap="round"/>
      </g>
      <g transform="matrix(1 0 0 1 74.51 -116.45)">
        <path style="stroke: rgb(11,70,74); stroke-width: 1; stroke-dasharray: none; stroke-linecap: butt; stroke-dashoffset: 0; stroke-linejoin: miter; stroke-miterlimit: 4; fill: rgb(11,70,74); fill-rule: nonzero; opacity: 1;" vector-effect="non-scaling-stroke" transform=" translate(-587.47, -396.45)" d="M 587.467834 396.449066 C 587.524414 396.415253 587.411255 396.48288 587.467834 396.449066 z" stroke-linecap="round"/>
      </g>
      <g transform="matrix(1 0 0 1 79.55 -52.76)">
        <linearGradient id="SVGID_6" gradientUnits="objectBoundingBox" gradientTransform="matrix(-0.14 0.99 -0.99 -0.14 1.06 0.07)" x1="0" y1="0" x2="1" y2="0">
          <stop offset="0" style="stop-color:rgb(57,166,165);stop-opacity: 1"/>
          <stop offset="0.1667" style="stop-color:rgb(19,81,86);stop-opacity: 1"/>
          <stop offset="0.3333" style="stop-color:rgb(57,166,165);stop-opacity: 1"/>
          <stop offset="0.5" style="stop-color:rgb(59,80,92);stop-opacity: 1"/>
          <stop offset="0.6667" style="stop-color:rgb(64,167,167);stop-opacity: 1"/>
          <stop offset="0.8333" style="stop-color:rgb(64,167,167);stop-opacity: 1"/>
        </linearGradient>
        <linearGradient id="SVGID_7" gradientUnits="objectBoundingBox" gradientTransform="matrix(-0.14 0.99 -0.99 -0.14 1.06 0.07)" x1="0" y1="0" x2="1" y2="0">
          <stop offset="0" style="stop-color:rgb(57,166,165);stop-opacity: 1"/>
          <stop offset="0.1667" style="stop-color:rgb(19,81,86);stop-opacity: 1"/>
          <stop offset="0.3333" style="stop-color:rgb(57,166,165);stop-opacity: 1"/>
          <stop offset="0.5" style="stop-color:rgb(59,80,92);stop-opacity: 1"/>
          <stop offset="0.6667" style="stop-color:rgb(64,167,167);stop-opacity: 1"/>
          <stop offset="0.8333" style="stop-color:rgb(64,167,167);stop-opacity: 1"/>
        </linearGradient>
        <path style="stroke: url(#SVGID_7); stroke-width: 0.25; stroke-dasharray: none; stroke-linecap: butt; stroke-dashoffset: 0; stroke-linejoin: miter; stroke-miterlimit: 10; fill: url(#SVGID_6); fill-rule: nonzero; opacity: 1; visibility: hidden;" vector-effect="non-scaling-stroke" transform=" translate(-592.52, -460.14)" d="M 646.53882 486.97974 C 652.91547 484.97805999999997 659.71717 483.1062 666.48291 481.11249 C 659.7171599999999 483.1062 652.9154699999999 484.97805999999997 646.13001 486.90493999999995 C 625.0268599999999 486.90493999999995 603.92371 486.90493999999995 582.4169999999999 486.90493999999995 C 582.3092099999999 484.71261999999996 582.14649 482.92861999999997 582.1453899999999 481.14449999999994 C 582.1351999999999 464.4851699999999 582.1508799999999 447.82582999999994 582.1630899999999 431.1664999999999 C 582.1691299999999 423.00292999999994 588.5374799999998 417.2025699999999 596.8399099999999 417.2808799999999 C 609.14875 417.3970299999999 621.5437699999999 418.08028999999993 633.7533599999999 416.9355699999999 C 657.2467099999999 414.73292999999995 675.1544799999999 394.98939999999993 676.7479299999999 370.96086999999994 C 678.3637099999999 346.59529999999995 662.6633999999999 324.34004999999996 639.7515899999999 318.81740999999994 C 635.5837999999999 317.8127999999999 631.2249799999998 317.17549999999994 626.9462299999999 317.12956999999994 C 606.9570299999999 316.91499999999996 586.9650299999998 316.96275999999995 566.9739999999999 316.93501999999995 C 565.8372199999999 316.93342999999993 564.70013 317.09407999999996 562.9029499999999 317.22862999999995 C 562.9029499999999 338.30815999999993 562.9029499999999 359.22264999999993 562.9665499999999 380.82127999999994 C 563.0302099999999 381.50544999999994 562.9462299999999 381.9234799999999 562.5712899999999 381.9368799999999 C 551.7813099999998 386.61137999999994 541.3663299999998 391.27244999999994 530.5798399999999 395.98124999999993 C 520.1411799999998 400.0297699999999 510.0740099999999 404.03059999999994 499.64202999999986 408.0605999999999 C 497.6129799999999 408.4221399999999 495.9487599999999 408.7545099999999 494.13482999999985 408.6313399999999 C 493.98510999999985 377.9477499999999 493.98510999999985 347.7196899999999 493.98510999999985 317.37983999999994 C 487.1433999999999 317.37983999999994 481.19924999999984 317.37983999999994 475.09209999999985 317.05616999999995 C 456.32338999999985 298.01939999999996 437.69377999999983 279.3299099999999 419.1325699999999 260.5728 C 415.5384499999999 256.94075 412.2112099999999 253.04461999999998 409.0613699999999 248.93384999999998 C 411.4879099999999 248.39807 413.6138899999999 248.02533999999997 415.7399899999999 248.02449 C 489.3979499999999 247.99457999999998 563.0559099999999 248.00703 636.7138699999999 247.96289 C 638.79499 247.96164 640.8757999999999 247.41031999999998 642.9567299999999 247.11549 C 660.1551599999999 248.92585 676.1007699999999 254.65167 690.5658599999999 263.87266 C 734.25983 291.72596 754.8711 340.27522 744.7559799999999 391.13529 C 741.1622299999999 409.20527 733.2020299999999 425.4513 722.0427199999999 440.82712 C 714.7192299999999 448.39261 708.3048699999999 456.10089 700.7236899999999 462.40639999999996 C 708.3048699999999 456.10088999999994 714.7192299999999 448.39261 721.9598299999999 441.14401 C 789.9008099999999 487.50212999999997 794.5003599999999 588.07358 731.50628 641.19253 C 706.1620999999999 662.56368 677.13689 673.46456 643.9027 673.16628 C 625.2502999999999 672.99886 606.59496 673.1502300000001 587.94097 673.1578000000001 C 586.16412 673.15853 584.3872 673.1579200000001 582.3362999999999 673.1579200000001 C 582.3362999999999 649.3242400000001 582.3362999999999 626.0838200000001 582.3362999999999 602.1397900000001 C 584.2336399999999 602.1397900000001 585.99975 602.1436400000001 587.76586 602.13918 C 607.58556 602.08956 627.40777 602.21816 647.2243599999999 601.9446 C 674.87042 601.56313 697.24487 584.678 703.69305 559.7021100000001 C 712.1970799999999 526.76382 689.95404 493.42172000000005 655.8776799999999 488.07421000000005 C 652.92053 487.61013 649.9252299999999 487.38869000000005 646.5388099999999 486.97970000000004 z" stroke-linecap="round"/>
      </g>
    </g>
  </g>
</svg>